<?xml version="1.0" encoding="utf-8"?>
<!-- Generator: Adobe Illustrator 25.4.1, SVG Export Plug-In . SVG Version: 6.00 Build 0)  -->
<svg version="1.1" id="Layer_1" xmlns="http://www.w3.org/2000/svg" xmlns:xlink="http://www.w3.org/1999/xlink" x="0px" y="0px"
	 viewBox="0 0 512.6 668.9" style="enable-background:new 0 0 512.6 668.9;" xml:space="preserve">
<style type="text/css">
	.st0{fill:#D6AB01;}
	.st1{fill:#C2C3C3;}
</style>
<path class="st0" d="M282,131.1c0-7.5-6.1-13.6-13.6-13.6h-22.7c-7.5,0-13.6,6.1-13.6,13.6v17.4c0,1.7,0.3,3.3,0.9,4.8c0,0,0,0,0,0
	c0,0.1,0.1,0.2,0.1,0.3c0,0.1,0.1,0.2,0.1,0.2c5.4,13.3,13,30.5,21.9,30.5h3.9c9,0,23-32.4,23-32.4c0-0.7,0-1.3-0.1-2
	c0.1-0.5,0.1-1,0.1-1.5V131.1z"/>
<path d="M160.8,574.6c0,12.1,0,24.1,0,36.2c-4.2,0-8.3,0-12.6,0c0-12.1,0-24.2,0-36.6c-6.3,0-12.4,0-18.6,0c0-15.6,0-30.9,0-46.6
	c-17.1,0-33.9,0-50.8,0c0-19.7,0-39.1,0-58.5c0.1-0.1,0.1-0.1,0.2-0.2s0.1-0.1,0.2-0.1c117.6,0,235.1-0.1,352.7-0.1
	c0.8,0,1.6,0,2.5,0c0,19.5,0,38.8,0,58.3c-16.7,0-33.4,0-50.3,0c0,1.2-0.1,2.1-0.1,3c0,13.6,0,27.2,0,40.8c0,0.9,0,1.9,0,3
	c-6.3,0-12.2,0-18.5,0c0,12.4,0,24.6,0,37c-4.4,0-8.6,0-13.1,0c0-12.1,0-24.2,0-36.1C350.2,574.2,165.8,574.1,160.8,574.6z
	 M421.8,514.4c0.5-4,0.3-31.3-0.2-33c-110.2,0-220.3,0-330.6,0c0,11,0,21.9,0,33C201.3,514.4,311.5,514.4,421.8,514.4z M142.1,560.9
	c76.2,0,152.3,0,228.5,0c0-11.1,0-22,0-33c-0.6,0-1.1-0.1-1.6-0.1c-75.5,0-151,0.1-226.5,0.1c-0.1,0-0.1,0.1-0.2,0.1
	c-0.1,0.1-0.1,0.1-0.2,0.2C142.1,539.1,142.1,550,142.1,560.9z"/>
<path d="M260.3,78.9c19.6,0,39.2,0,58.7,0c9.8,0,19.7,0,29.5,0.3c29,1,51.2,14.1,65.7,39.1c22.9,39.3,7.5,90.8-35.7,110.2
	c-0.6,0.3-1.2,0.5-1.7,0.8c-3.4,1.6-4.2,3.1-3.6,6.9c0.4,2.4,0.8,4.9,1.1,7.3c0.5,3.7,0.8,7.5,1.2,11.2c0.1,0.9,0.1,1.8,0,2.6
	c-0.5,3.9-5.2,5.8-8.2,3.3c-0.8-0.6-1.5-1.5-2.1-2.3c-4.9-6.4-9.8-12.9-14.5-19.4c-1.8-2.4-3.8-3.5-6.9-3.5
	c-22.9,0.1-45.7,0.1-68.6,0.1c-0.3,0-0.6,0-1,0c-2.8,0-3.6,0.6-4.6,3.2c-2.3,5.8-4.5,11.6-6.8,17.4c-0.4,0.9-0.7,1.8-1.2,2.6
	c-2.3,3.9-7,3.9-9.2,0c-0.4-0.8-0.7-1.6-1.1-2.4c-2.3-5.9-4.5-11.8-6.8-17.7c-1.1-2.7-1.7-3.2-4.6-3.2c-22.7,0-45.4,0.1-68.1,0
	c-2.8,0-4.7,1-6.3,3.2c-4.7,6.3-9.5,12.5-14.2,18.7c-0.7,0.9-1.4,1.8-2.1,2.6c-1.6,1.7-3.5,2.1-5.7,1.3c-2.1-0.9-3.1-2.5-3.1-4.7
	c0-0.6,0-1.1,0.1-1.7c0.8-6.9,1.6-13.8,2.4-20.7c0.1-0.6,0.1-1.1,0.2-1.7c0.2-1.6-0.5-2.8-1.9-3.5s-2.9-1.4-4.3-2.1
	c-23.2-12.1-37.2-31.2-41.6-56.8c-4.4-26,3.3-48.7,21.4-67.8c11.5-12.1,25.8-19.4,42.4-22.1c6.5-1,13-1.2,19.6-1.2
	c16.4,0,32.8,0,49.1-0.1C238.6,79,249.4,79,260.3,78.9C260.3,79,260.3,78.9,260.3,78.9z M361.5,236.1c0.2,0,0.5-0.1,0.7-0.1
	c0-1.2,0-2.3,0-3.5c-0.1-1.4-0.2-2.7-0.3-4.1c-0.1-3.6,0.7-4.8,4.1-6.2c1-0.4,1.9-0.7,2.9-1.1c24.9-8.9,43.6-30.6,45.2-60.9
	c0.8-15.6-3.4-29.9-12.6-42.6c-10.3-14.3-24-23.4-41.5-26.6c-7.5-1.4-15.1-1.6-22.7-1.6c-20.9-0.2-41.7-0.2-62.6-0.2
	c-31.9,0-63.8,0-95.7,0.1c-6.9,0-13.7,0.1-20.5,1.5c-39.4,8.2-58.5,44.4-53.3,76.8c4,25,18.3,42.6,41.7,52.5c1.5,0.6,2.9,1.2,4.4,2
	c1.8,0.9,2.7,2.5,2.6,4.5c0,1.4-0.2,2.9-0.3,4.3c-0.1,1.5-0.2,3.1-0.4,4.9c2-0.9,2.9-2.3,3.7-3.8c2.2-3.9,5.4-6.2,9.8-7
	c1.4-0.2,2.9-0.3,4.3-0.3c5.2,0,10.4,0.1,15.6,0.2c19.4,0,38.8,0,58.3,0c4.3,0,5.7,0.9,7.3,4.9c1.2,3,2.3,6,3.5,8.9
	c0.3,0.7,0.6,1.4,1.2,2.7c0.7-1.3,1.1-2,1.4-2.8c1.4-3.3,2.7-6.7,4.1-10c1-2.5,3-3.6,5.6-3.7c0.6,0,1.1,0,1.7,0
	c26.1,0,52.3,0,78.4-0.1c3.6,0,6.3,1.2,8.3,4.2C357.9,231.6,359.7,233.8,361.5,236.1z"/>
<path d="M107.7,303.5c0-16.9,13.8-30.8,30.6-30.8c16.6,0,30.4,14,30.5,30.7c0,16.8-13.6,30.5-30.5,30.5
	C121.4,334,107.8,320.3,107.7,303.5z M138.1,323.6c11.2,0,20.2-8.9,20.2-20c0-11.3-8.7-20.2-19.9-20.3c-11.1-0.1-20.1,8.8-20.2,20.1
	C118.1,314.5,127,323.5,138.1,323.6z"/>
<path d="M287.5,303.5c0,16.8-13.8,30.5-30.6,30.5c-16.9,0-30.6-13.8-30.5-30.8c0.1-16.6,13.9-30.4,30.5-30.5
	C273.6,272.7,287.5,286.7,287.5,303.5z M257,323.6c11.2-0.1,20-9,20-20.2c0-11.1-9-20.2-19.9-20.1c-11.4,0-20.2,8.9-20.2,20.3
	C236.9,314.7,245.9,323.6,257,323.6z"/>
<path d="M345.1,303c0-16.4,14.1-30.4,30.5-30.3c16.8,0.1,30.5,14,30.5,30.9c0,16.6-13.8,30.4-30.5,30.4
	C358.6,333.9,345.1,320.4,345.1,303z M375.6,323.6c11.2,0,20-8.9,20.1-20.1c0-11.4-8.8-20.3-20.1-20.3c-11.1,0-20,9.1-20,20.2
	C355.6,314.7,364.4,323.6,375.6,323.6z"/>
<path d="M82.2,418.3c0.5-5.3,0.9-10.2,1.4-15c0.7-7.3,1.4-14.6,2.3-21.9c0.6-4.9,1.1-9.9,2-14.7c2.1-10.6,8.2-18.2,17.7-23.1
	c5.4-2.8,11.1-4.3,17-5.4c2.7-0.5,5.1,1,5.8,3.4c0.8,2.7-0.2,5.1-2.9,6.3c-1.5,0.7-3.2,1-4.8,1.5c-2.6,0.8-5.2,1.4-7.8,2.4
	c-8.4,3.3-13.4,9.5-15.1,18.4c-0.7,3.8-1,7.8-1.4,11.6c-1.1,10.7-2.2,21.5-3.3,32.2c-0.2,1.7-0.3,3.5-0.6,5.2
	c-0.2,1.1-0.7,2.3-1.3,3.3c-1,1.6-2.7,2.2-4.6,2s-3.3-1.3-3.9-3.1C82.5,420.3,82.3,419.1,82.2,418.3z"/>
<path d="M319.5,419.3c0.4-3.9,0.7-7.3,1-10.7c0.7-7.6,1.4-15.3,2.3-22.9c0.7-6,1.3-11.9,2.3-17.8c1.9-11.2,8-19.3,18.1-24.4
	c5.2-2.7,10.9-4.2,16.6-5.3c2-0.4,3.8,0.1,5.2,1.7c2,2.3,1.6,5.6-0.9,7.4c-1.1,0.7-2.4,1.2-3.7,1.6c-2.4,0.7-4.9,1.3-7.4,2
	c-3.2,0.9-6.1,2.4-8.7,4.3c-5.1,3.8-8.1,9-8.9,15.3c-1,7.2-1.7,14.4-2.4,21.7c-0.9,8.8-1.8,17.6-2.8,26.5c-0.1,0.7-0.2,1.4-0.4,2.1
	c-0.9,2.8-3.1,4.2-5.6,3.8C321.3,424,319.5,421.8,319.5,419.3z"/>
<path d="M200.9,418.3c0.6-5.7,1.1-11.1,1.7-16.5c0.9-8.7,1.8-17.3,2.7-26c0.5-5.3,1.3-10.5,3.4-15.4c3.5-8.2,9.4-13.9,17.4-17.7
	c4.8-2.2,9.9-3.5,15.1-4.5c2.9-0.6,5.1,0.8,6,3.5c0.8,2.6-0.3,5.1-3,6.2c-1.5,0.6-3.2,1-4.8,1.5c-3,1-6,1.7-8.8,2.9
	c-8.5,3.7-12.9,10.4-14.2,19.4c-0.8,5.6-1.3,11.3-1.9,16.9c-1,9.9-2,19.9-3,29.8c-0.1,1-0.4,2-0.8,3c-1,2.3-2.9,3.4-5.1,3.1
	c-2.3-0.3-3.9-1.8-4.4-4.2C200.9,419.6,200.9,418.8,200.9,418.3z"/>
<path d="M312.5,417.3c-0.1,1.9-0.5,3.7-2.4,4.8c-3.5,2-7.1,0.2-7.8-4c-0.5-2.9-0.8-5.9-1.1-8.8c-1.3-12.6-2.5-25.3-3.9-37.9
	c-1-8.9-5.8-15.5-14-19.2c-3.3-1.5-7-2.3-10.5-3.4c-1.3-0.4-2.6-0.7-3.9-1.3c-2.4-1.1-3.2-3.4-2.4-6c0.8-2.7,2.8-4,5.4-3.5
	c5.3,1,10.5,2.2,15.4,4.5c12.1,5.8,19.1,15.4,20.6,28.8c1.5,13.5,2.8,27,4.2,40.5C312.2,413.7,312.4,415.5,312.5,417.3z"/>
<path d="M431.1,416.5c-0.1,0.8-0.2,1.9-0.5,3c-0.6,2.1-2,3.3-3.9,3.4c-2.4,0.2-4.5-0.8-5.3-2.9c-0.5-1.2-0.7-2.5-0.8-3.7
	c-1.3-13.4-2.6-26.9-4-40.3c-0.2-2.3-0.5-4.6-1.1-6.9c-1.9-8.2-6.8-14-14.6-17.1c-3.2-1.3-6.6-2-9.8-3c-1.4-0.4-2.8-0.9-4-1.6
	c-2.1-1.3-2.7-3.3-2.1-5.6c0.6-2.1,2.3-3.4,4.7-3.4c0.9,0,1.8,0,2.6,0.2c3.8,1.1,7.8,1.9,11.5,3.3c12,4.8,19.7,13.4,22.2,26.2
	c0.8,4.3,1.2,8.7,1.6,13.1c1.1,11.1,2.2,22.3,3.3,33.4C431,415,431,415.6,431.1,416.5z"/>
<path d="M193.8,416.5c-0.1,0.6-0.1,1.5-0.3,2.4c-0.6,2.7-2.1,3.9-4.7,4c-2.5,0.1-4.4-1.1-5-3.6c-0.6-2.4-0.8-4.9-1-7.3
	c-1.3-13-2.6-25.9-3.9-38.9c-0.7-6.9-3.3-13-8.9-17.5c-2.7-2.2-5.8-3.7-9.1-4.7c-2.7-0.8-5.4-1.5-8.1-2.3c-0.6-0.2-1.2-0.3-1.8-0.6
	c-2.9-1.1-4-3.3-3.2-6.3c0.7-2.7,2.8-3.9,5.7-3.5c6.7,1,13.1,3,18.9,6.5c9.5,5.7,14.9,14.1,16.5,24.9c0.9,6.1,1.3,12.2,1.9,18.4
	c0.9,8.7,1.8,17.3,2.7,26C193.6,414.7,193.7,415.5,193.8,416.5z"/>
<path d="M237.9,383.7c-0.6,4.6-1.1,9-1.6,13.4c-0.9,6.9-1.8,13.8-2.7,20.7c0,0.3,0,0.6-0.1,1c-0.6,3.4-2.9,5-6.2,4.5
	c-2.8-0.4-4.5-2.9-4.2-6c0.3-2.6,0.6-5.2,1-7.9c1.1-8.4,2.1-16.8,3.2-25.2c0.2-1.7,0.7-3.5,1.4-5c0.9-2.1,2.6-2.9,4.9-2.6
	c2.1,0.3,3.3,1.3,3.8,3.7C237.7,381.4,237.8,382.6,237.9,383.7z"/>
<path d="M341.9,417.4c0.5-4.3,1-8.9,1.6-13.6c0.9-6.9,1.8-13.8,2.7-20.7c0.1-0.8,0.2-1.6,0.4-2.4c0.6-2.9,2.6-4.4,5.5-4.2
	c2.5,0.2,4.6,2.2,4.6,4.9c0,2.1-0.3,4.3-0.6,6.4c-1.2,9.4-2.4,18.8-3.6,28.3c-0.1,0.9-0.2,1.7-0.4,2.6c-0.6,3.4-2.5,4.9-5.8,4.5
	C343.3,423,341.8,421.1,341.9,417.4z"/>
<path d="M104.4,417.9c0.6-4.8,1.1-9.5,1.7-14.3c0.9-6.8,1.8-13.6,2.7-20.4c0.1-1,0.3-2.1,0.5-3.1c0.7-2.3,2.5-3.6,4.8-3.5
	c2.4,0,4.1,1.2,4.7,3.7c0.3,1.2,0.5,2.6,0.3,3.8c-1.4,11.1-2.8,22.2-4.2,33.3c-0.1,0.6-0.2,1.3-0.3,1.9c-0.3,2-1.4,3.5-3.4,4
	s-4,0.2-5.6-1.3C104.6,420.8,104.4,419.4,104.4,417.9z"/>
<path d="M404.1,422.8c-2.8,0-4.4-1.3-5-4.4c-0.7-4.2-1.4-8.5-2-12.8c-1.1-7.1-2.1-14.2-3.2-21.3c-0.1-0.7-0.2-1.4-0.2-2.1
	c-0.2-3.2,1.6-5.2,4.6-5.6c2.9-0.3,5,1.3,5.5,4.4c1.3,8,2.5,16.1,3.8,24.1c0.6,3.8,1.2,7.6,1.8,11.4
	C409.9,420.1,407.7,422.8,404.1,422.8z"/>
<path d="M161.5,376.6c2.7,0,4.4,1.4,4.9,4.2c1.2,6.9,2.2,13.9,3.3,20.8c0.8,4.8,1.5,9.6,2.2,14.5c0.1,0.9,0.1,1.9-0.1,2.8
	c-0.6,2.7-2.3,3.9-5,3.9s-4.4-1.2-4.9-4c-0.8-4.5-1.5-9-2.2-13.5c-1.1-6.9-2.1-13.7-3.2-20.6c-0.1-0.9-0.3-1.9-0.3-2.9
	C156.2,378.7,158.3,376.6,161.5,376.6z"/>
<path d="M290.7,417c0,3.4-1.8,5.6-4.5,5.8c-3,0.3-5.1-1.2-5.6-4.3c-1-5.7-1.9-11.3-2.8-17c-0.9-5.9-1.8-11.8-2.7-17.8
	c-0.1-0.6-0.2-1.1-0.2-1.7c0-2.9,1.8-5.1,4.4-5.4c3.2-0.4,5.3,1,5.9,4.2c0.8,4.2,1.4,8.4,2,12.5c1.1,7.3,2.2,14.5,3.3,21.8
	C290.6,415.9,290.6,416.6,290.7,417z"/>
<path class="st1" d="M361.5,236.1c-1.7-2.3-3.5-4.5-5.1-6.9c-2-3-4.7-4.2-8.3-4.2c-26.1,0.1-52.3,0.1-78.4,0.1c-0.6,0-1.1,0-1.7,0
	c-2.6,0.1-4.6,1.2-5.6,3.7c-1.4,3.3-2.7,6.7-4.1,10c-0.3,0.8-0.8,1.5-1.4,2.8c-0.6-1.3-0.9-1.9-1.2-2.7c-1.2-3-2.3-6-3.5-8.9
	c-1.6-3.9-3-4.9-7.3-4.9c-19.4,0-38.8,0-58.3,0c-5.2,0-10.4-0.1-15.6-0.2c-1.4,0-2.9,0-4.3,0.3c-4.4,0.8-7.6,3.1-9.8,7
	c-0.8,1.4-1.6,2.9-3.7,3.8c0.1-1.8,0.3-3.4,0.4-4.9c0.1-1.4,0.3-2.9,0.3-4.3c0.1-2-0.9-3.6-2.6-4.5c-1.4-0.7-2.9-1.4-4.4-2
	c-23.4-9.9-37.7-27.5-41.7-52.5c-5.2-32.5,13.9-68.6,53.3-76.8c6.8-1.4,13.6-1.5,20.5-1.5c31.9,0,63.8-0.1,95.7-0.1
	c20.9,0,41.7,0,62.6,0.2c7.6,0.1,15.2,0.2,22.7,1.6c17.5,3.2,31.2,12.3,41.5,26.6c9.1,12.7,13.4,27,12.6,42.6
	c-1.6,30.2-20.3,52-45.2,60.9c-1,0.3-2,0.7-2.9,1.1c-3.3,1.4-4.2,2.6-4.1,6.2c0,1.4,0.2,2.7,0.3,4.1c0,1.2,0,2.3,0,3.5
	C361.9,236,361.7,236.1,361.5,236.1z M221.7,144.3c0.1,8,3.5,16.3,10.5,23.1c5.5,5.3,10,11.4,13,18.5c0.7,1.7,1.7,3.2,2.8,4.7
	c1.4,1.9,3.5,2.8,5.9,2.7s4.8-0.2,7.2-0.3c3.4-0.2,5.1-1.5,6-4.8c1.3-4.6,3.4-8.8,6.5-12.4c2.2-2.5,4.5-5,6.9-7.3
	c8.2-7.6,12.1-16.8,11.6-28c-0.9-17.7-14.9-32.7-33.8-33.4C238.2,106.2,221.7,122.2,221.7,144.3z M257.2,207.7
	c1.4-0.1,3.1-0.2,4.8-0.3c2.4-0.2,3.8-1.4,4.2-3.5c0.5-2.7-0.5-5.1-2.7-6.1c-1.8-0.8-11.2-0.9-13,0c-2.2,1-3.2,3.3-2.7,6.1
	c0.4,2.1,1.7,3.4,4.1,3.6C253.6,207.5,255.3,207.6,257.2,207.7z"/>
<path d="M221.7,144.3c0-22,16.4-38.1,36.7-37.2c18.9,0.8,33,15.7,33.8,33.4c0.5,11.2-3.4,20.4-11.6,28c-2.5,2.3-4.8,4.7-6.9,7.3
	c-3.1,3.6-5.2,7.8-6.5,12.4c-0.9,3.3-2.6,4.6-6,4.8c-2.4,0.1-4.8,0.3-7.2,0.3c-2.4,0.1-4.4-0.8-5.9-2.7c-1.1-1.4-2.1-3-2.8-4.7
	c-3-7.1-7.5-13.1-13-18.5C225.2,160.6,221.8,152.2,221.7,144.3z M255.6,117.5c-5.2-0.1-9.4,1.4-13.1,4.3c-4.8,3.7-7.8,8.6-9.5,14.3
	c-2.4,8.1-0.8,15.3,4.9,21.6c1.3,1.4,2.6,2.8,3.9,4.3c4.7,5.3,8.9,10.9,12.2,17.1c0.6,1.2,1,2.8,2.6,2.8c1.6,0,2-1.6,2.6-2.8
	c2-4.5,4.6-8.6,8-12.2c2.1-2.3,4.4-4.4,6.7-6.5c13-11.8,9.8-32.9-6.2-40.2C263.7,118.4,259.5,117.7,255.6,117.5z"/>
<path d="M257.2,207.7c-1.9-0.1-3.6-0.2-5.2-0.3c-2.4-0.2-3.8-1.4-4.1-3.6c-0.5-2.8,0.6-5.1,2.7-6.1c1.8-0.8,11.2-0.8,13,0
	c2.1,1,3.2,3.4,2.7,6.1c-0.4,2.1-1.8,3.3-4.2,3.5C260.3,207.5,258.6,207.6,257.2,207.7z"/>
</svg>
