<?xml version="1.0" encoding="utf-8"?>
<!-- Generator: Adobe Illustrator 25.4.1, SVG Export Plug-In . SVG Version: 6.00 Build 0)  -->
<svg version="1.1" id="Layer_1" xmlns="http://www.w3.org/2000/svg" xmlns:xlink="http://www.w3.org/1999/xlink" x="0px" y="0px"
	 viewBox="0 0 512.6 668.9" style="enable-background:new 0 0 512.6 668.9;" xml:space="preserve">
<style type="text/css">
	.st0{fill:#C2C3C3;}
	.st1{fill:#D6AB01;}
</style>
<path d="M160.4,573.7c0,12.4,0,24.4,0,36.5c-4.2,0-8.3,0-12.6,0c-0.1-6,0-12.1-0.1-18.1c0-6.1,0-12.1,0-18.5c-6.2-0.1-12.1,0-18.4,0
	c-0.2-7.8,0-15.5-0.1-23.2c0-7.7,0-15.3,0-23.2c-17,0-33.7,0-50.4,0c-0.6-1.9-0.7-55.8-0.2-58.9c118.4,0,236.8,0,355.2,0
	c0.5,1.7,0.8,52.4,0.3,58.2c-3.3,0.2-6.6,0.1-9.9,0.1c-3.4,0-6.7,0-10.1,0s-6.7,0-10.1,0s-6.7,0-10.1,0c-3.3,0-6.7,0-10.4,0
	c0,3.2,0,6.3,0,9.4c0,3,0,6.1,0,9.1c0,3.1,0,6.2,0,9.4c0,3,0,6.1,0,9.1c0,3.1,0,6.2,0,9.6c-6.2,0-12.2,0-18.5,0
	c0,12.6,0,24.9,0,37.2c-4.5,0-8.6,0-13,0c0-12.2,0-24.3,0-36.5C288.1,573.7,224.4,573.7,160.4,573.7z M421.6,480.6
	c-110.4,0-220.6,0-330.8,0c-0.5,3.1-0.4,31.4,0.1,33.1c110.2,0,220.4,0,330.7,0C421.6,502.6,421.6,491.7,421.6,480.6z M141.9,560.1
	c3.3,0.5,226.8,0.4,228.5-0.1c0-10.9,0-21.8,0-32.7c-3.1-0.5-226.7-0.4-228.5,0.1C141.9,538.2,141.9,549.1,141.9,560.1z"/>
<path d="M213.5,134.9c-5.5-1.6-10.6-3.4-15.9-4.6c-27.3-6.1-55.2,8.8-65.2,34.8c-3.3,8.6-3.9,17.4-2.9,26.4c0.6,5.7,2,11.3,3.8,16.8
	c0.2,0.5,0.3,1.1,0.5,1.9c-1-0.1-1.9-0.2-2.7-0.4c-7.1-1.4-14.4-2.3-21.7-2.1c-17.8,0.5-33.2,6.6-45.8,19.4
	c-8.2,8.4-12.9,18.5-14.5,30.2c-3.3,24.7,10,52.7,39.7,63.2c7.5,2.6,15.1,3.9,23,3.9c37.6,0,75.3,0,112.9,0c1,0,2,0,3.2,0
	c0,4.6,0,8.9,0,13.6c-1.3,0.1-2.5,0.3-3.8,0.3c-4.7,0-9.4,0.1-14.1,0.1c-27.7,0-55.3,0-83,0c-6.6,0-13.3,0-19.9-0.4
	c-26.1-1.8-46.4-13.5-60.8-35.4c-6-9.2-10-19.1-11.1-30.1c-2-18.4,2.9-34.9,14.5-49.2c11.9-14.7,27.6-23.6,46.1-27.3
	c5.3-1.1,10.8-1.3,16.2-1.9c0.8-0.1,1.6-0.1,2.7-0.2c0.2-2.2,0.4-4.3,0.5-6.4c0.2-5.6,0.5-11.2,1.8-16.7c3.8-16.9,13-30.2,26.6-40.7
	c10.2-7.8,21.8-12.7,34.6-14.2c7.7-0.9,15.5-0.6,23.1,1.2c2.9,0.7,4.3,0.1,5.8-2.5c0.6-1,1.1-2.1,1.7-3.2
	c16.7-30.7,42.3-49.9,76.4-56.9c32.1-6.6,61.4,1.1,87.3,21c21.5,16.5,35.1,38.2,40.8,64.7c1.5,6.8,1.7,13.6,1.9,20.5
	c0.1,2.8,0.1,5.6,0.2,8.4c0.1,3.8,0.7,4.6,4.3,5.9c9.9,3.5,18.9,8.5,27,15.2c15.8,13.2,25.6,30,29.2,50.3c3,17.1,1.8,33.8-5.3,49.8
	c-10.3,23-27.6,38.2-52.1,44.8c-5.7,1.5-11.6,2.3-17.5,2.3c-27.1,0-54.2,0.1-81.3,0.1c-1.4,0-2.9-0.1-4.4-0.2c0-4.6,0-9,0-13.6
	c0.7,0,1.4-0.1,2.1-0.1c23.3,0,46.5,0,69.8-0.1c6.1,0,12.2,0.3,18.2-0.1c25.5-1.4,46-17.2,54.2-41.5c4-11.7,4.7-23.8,3.4-36
	c-1.4-12.6-5.8-24-13.4-34.2c-10.2-13.6-23.8-21.8-40.1-25.6c-2.3-0.5-4.5-0.9-6.8-1.5c-0.8-0.2-1.6-0.5-2.5-0.9
	c0.4-3,0.9-5.8,1.2-8.7c5.8-44.6-17.8-79.8-46.2-96.3c-10.4-6-21.5-9.6-33.3-11.6c-14.6-2.4-29.2-2-43.4,2.5
	c-27,8.4-46.7,25.4-59.1,50.9c-2,4-3.5,8.2-5.2,12.4C214,133.7,213.7,134.4,213.5,134.9z"/>
<path d="M243.8,395.6c4.2,0,8.5,0,12.9,0c0,4.4,0,8.6,0,13.1c-4.3,0-8.6,0-12.9,0C243.4,406.9,243.3,398.1,243.8,395.6z"/>
<path d="M286.6,408.6c0-4.4,0-8.6,0-12.9c1.8-0.5,10.7-0.6,13.2-0.1c0,4.2,0,8.5,0,12.9C295.4,408.6,291.1,408.6,286.6,408.6z"/>
<path d="M256.8,424.1c0,4.5,0,8.8,0,13.3c-4.3,0-8.5,0-12.9,0c-0.4-4.3-0.1-8.7-0.2-13.3C248.2,424.1,252.4,424.1,256.8,424.1z"/>
<path d="M286.8,380c-0.1-0.6-0.1-1-0.1-1.5c0-3.7,0-7.5,0-11.4c4.5,0,8.7,0,13.2,0c0,4.3,0,8.5,0,12.9
	C295.4,380,291.2,380,286.8,380z"/>
<path class="st0" d="M364.4,154.8c-0.4,6.3-5.9,13.7-11.9,15.2c-1.5,0.4-2.9,0.4-4.4,0.1c-6.2-0.8-12.5-6.8-13.5-12.9
	c-0.1-1.1-0.1-2.4,0-3.5c1.1-5.5,4.3-9.4,9.1-12.1c2.7-1.5,5.5-1.7,8.3-0.8c4.7,1.5,8.4,4.3,10.6,8.7
	C363.5,151,363.9,153,364.4,154.8z"/>
<path class="st1" d="M189,212.4c-0.5-0.1-1.9-0.3-3-0.8c-5.9-2.7-9.8-7.3-10.9-13.7c-0.3-1.7,0.3-3.9,0.9-5.5
	c2.4-5.2,6.7-8.6,12.4-9.7c1.7-0.3,3.8-0.1,5.4,0.4c6.3,2.4,10.1,7,11.2,13.7c0.1,0.7,0.1,1.3,0,1.9
	C204.5,205.4,196.7,212.4,189,212.4z"/>
<path class="st0" d="M234.2,155.2c0.3-6.7,6.7-14.3,13.4-15.2c3.2-0.4,6.1,0.4,8.7,2.2c9.7,6.4,10.6,15.3,2.1,23.4
	c-4.9,4.6-10.6,4.9-16.1,1.3c-2.6-1.7-4.8-3.8-6.2-6.6C235.2,158.7,234.8,156.8,234.2,155.2z"/>
<path class="st0" d="M249.5,231.8c7,0,14.3,6.5,15.2,13.5c0.1,0.7,0.1,1.3,0,1.9c-0.4,1.6-0.7,3.4-1.5,5c-2.7,5.3-6.6,9.3-12.8,9.6
	c-6.3,0.3-10.9-3.5-14-8.8c-1.8-3-2-6.3-0.9-9.7C237.5,236.8,243.6,231.8,249.5,231.8z"/>
<path class="st0" d="M282.7,197.6c0.4-6.8,6.8-14.3,13.2-15c2-0.3,4.2,0.3,6.2,0.9c3.8,1.3,6.6,4,8.7,7.4c2,3.2,2.4,6.5,0.9,10.1
	c-1.6,4.2-4.4,7.4-8.3,9.7c-2.9,1.7-6,2-9.1,0.8c-4.4-1.7-7.8-4.5-10.1-8.7C283.7,201.2,283.3,199.4,282.7,197.6z"/>
<path d="M371.8,146c-2.7-7.5-8-12.3-15.9-14.1c-3.9-0.9-7.8-1-11.7-0.3c-9.3,1.6-16.7,8.6-18.6,17.5c-0.8,3.5-0.9,7.1-0.2,10.7
	c1.6,8.5,6,14.7,14.1,18.1c3.6,1.5,4,2.1,4,6.1c0,7.9-0.1,15.8,0.1,23.7c0.1,3.7-1.2,6.1-4.4,8c-15.9,9.5-31.7,19.2-47.5,28.9
	c-0.9,0.6-1.9,1.2-2.8,1.8c-1.7,1.1-2.6,2.8-2.7,4.8c0,0.8,0,1.6,0,2.4c0,26.3,0.1,52.6,0.1,78.9c0,4.8,0,9.7,0,14.6
	c0,1.5,0.2,2.9,0.3,4.4c4.5,0,8.9,0,13.4,0c0-0.9,0.1-1.7,0-2.3c0.1-10.6,0.1-21.1,0.1-31.7c0-18.8,0-37.6-0.1-56.4
	c0-3.8,1.3-6.3,4.6-8.3c16.2-9.7,32.2-19.6,48.4-29.3c3.2-1.9,4.7-4.4,4.6-8.2c-0.1-10.6,0-21.2-0.2-31.7c-0.1-3.6,1-5.7,4.3-7.4
	c6.2-3.1,10.2-8.3,11.5-15.3C374.1,155.8,373.6,150.8,371.8,146z M352.6,165.9c-0.3,0.1-0.5,0.2-0.8,0.2c-0.3,0.1-0.6,0.1-0.9,0.1
	c-0.5,0.1-1,0.1-1.5,0.1c-6.2,0-11.2-5-11.2-11.2s5-11.2,11.2-11.2c6.2,0,11.2,5,11.2,11.2C360.6,160.2,357.2,164.5,352.6,165.9z"/>
<path d="M253.1,295.3c-8.7-6.3-17.4-12.7-26.1-19.1c-7.6-5.6-15.1-11.3-22.7-16.9c-2.2-1.7-4-3.7-4-6.7c-0.1-9.4,0-18.7-0.1-28.1
	c0-2.8,1.2-4.7,3.4-6.2c4.6-3.1,7.7-7.4,9.6-12.6c3.4-9.5,1.1-19.9-6-26.2c-5.3-4.8-11.7-6.7-18.8-6.4c-10.1,0.5-18.4,6.9-21.2,16.6
	c-1.1,3.9-1.3,7.9-0.8,11.9c1,8.3,5.3,14.2,13,17.6c1,0.5,2,0.8,3.1,1.2c2.4,0.8,3.6,2.4,3.6,5c0,2-0.1,3.9-0.1,5.8
	c0,8.9,0.1,17.7-0.1,26.6c0,3.7,1.3,6.3,4.3,8.5c16.2,11.9,32.4,23.9,48.7,35.7c3.1,2.3,4.5,5,4.5,8.9c-0.1,22.1-0.1,44.3-0.1,66.4
	c0,0.9,0,1.8,0,2.8c4.8,0,9.3,0,13.8,0c0.1-0.7,0.2-1.2,0.2-1.7c0.1-25.1,0.1-50.2,0.1-75.3c0-0.7-0.1-1.4-0.2-2.1
	C256.8,298.4,255.1,296.8,253.1,295.3z M189.3,208.6c-0.2-0.1-0.8-0.1-1.4-0.3c-5.1-1-8.9-5.6-8.9-11c0-0.1,0-0.2,0-0.2
	c0-0.5,0-1,0.1-1.5c0.9-5.3,5.5-9.4,11-9.4c6.2,0,11.2,5,11.2,11.2c0,0.1,0,0.2,0,0.2c0,0.1,0,0.3,0,0.4
	c-0.3,5.7-4.9,10.2-10.6,10.5C190.3,208.6,189.8,208.6,189.3,208.6z"/>
<path d="M260.9,224.8c-2.7-1.3-3.7-3-3.7-6c0.1-11.7,0.1-23.3-0.1-35c-0.1-4.2,1.2-6.9,5.1-8.7c5.8-2.7,9.2-7.4,10.6-13.7
	c0.8-3.7,0.8-7.3,0.3-11c-1.1-8.1-5.2-14.3-12.6-17.8c-8.4-4-16.7-3.2-24.7,1.5c-5.7,3.3-9,8.3-10.2,14.7c-0.7,3.8-0.7,7.6,0.2,11.4
	c1.8,7.9,6,13.9,13.8,16.9c3.4,1.3,3.8,1.9,3.8,5.5c0,12.2,0,24.5,0,36.7c0,3.2-0.6,4.2-3.7,5.4c-10.7,4.2-14.1,13.5-14.2,21.7
	c0.1,6.7,2.1,12.3,6.4,16.9c6.5,7.4,14.8,9,24,6.9c6.3-1.4,11.5-4.8,14.9-10.4C277.7,248.3,274,231.1,260.9,224.8z M238.1,155.6
	c-0.1-0.2-0.1-0.4-0.2-0.5c0-0.4,0.1-0.9,0.2-1.3c0.4-5.3,4.5-9.6,9.8-10.3c0,0,0,0,0.1,0c0,0,0,0,0,0c0.2,0,0.3,0,0.5,0
	c0.2,0,0.3,0,0.5,0c0.1,0,0.2,0,0.3,0c5,0,9.2,3.3,10.7,7.8c0.7,1.7,0.8,3.5,0.4,5.3c-0.8,4.6-4.4,8.3-9,9.1
	c-0.6,0.1-1.1,0.2-1.7,0.2c-0.1,0-0.2,0-0.3,0C243.4,165.8,238.6,161.3,238.1,155.6z M249.8,258c-6.2,0-11.2-5-11.2-11.2
	c0-6.2,5-11.2,11.2-11.2s11.2,5,11.2,11.2C260.9,253,255.9,258,249.8,258z"/>
<path d="M321.8,194.2c-1.4-12.7-10.6-21-23.4-21.2c-2,0.2-4,0.3-5.9,0.8c-9.3,2-15.5,7.4-18,16.8c-1,4-1,8.1-0.2,12.1
	c1.8,9,6.8,15.2,15.7,17.9c4,1.2,8,1.3,12.1,0.6c9.4-1.6,16-6.5,18.9-15.8C322.1,201.7,322.2,198,321.8,194.2z M297.7,208.6
	c-6,0-10.9-4.7-11.2-10.7c0-0.1-0.1-0.2-0.1-0.3c0-0.3,0.1-0.6,0.1-0.8c0.3-6,5.2-10.7,11.2-10.7c4.8,0,8.9,3,10.5,7.3
	c0.9,1.8,1.1,3.6,0.6,5.5C308.1,204.3,303.4,208.6,297.7,208.6z"/>
</svg>
