<?xml version="1.0" encoding="utf-8"?>
<!-- Generator: Adobe Illustrator 25.4.1, SVG Export Plug-In . SVG Version: 6.00 Build 0)  -->
<svg version="1.1" id="Layer_1" xmlns="http://www.w3.org/2000/svg" xmlns:xlink="http://www.w3.org/1999/xlink" x="0px" y="0px"
	 viewBox="0 0 512.6 668.9" style="enable-background:new 0 0 512.6 668.9;" xml:space="preserve">
<style type="text/css">
	.st0{fill:#C2C3C3;}
	.st1{fill:#D6AB01;}
</style>
<g>
	<path d="M131.4,236.7c-0.3-69.1,56.9-126.2,126.7-125.8c67.7,0.4,125.3,56.2,125,126.7c-0.3,67.6-55.8,125.2-126.4,125
		C188.1,362.5,131.1,306.2,131.4,236.7z M217.7,158.7c0.5,0.3,0.8,0.6,1,0.6c10.7,0.8,21.5,1.6,32.2,2.5c0.5-2.8,0.4-37-0.1-38.8
		c-0.5,0-1.1,0-1.6,0c-7,0.4-14,1.6-20.8,3.4c-53.9,14.3-90.1,64.8-84.8,122.3c1.4,15.3,6.1,29.7,13.6,43.1
		c3.5,6.2,7.5,12.1,11.9,17.7c1.6,2,3.4,2.9,6.1,2.1c2.8-0.8,5.7-1.4,8.6-2.1c5-1.2,9.9-2.3,15.2-3.5c-5-9.9-9.1-20.1-11.9-30.7
		c-2.8-10.7-4.4-21.5-5.1-32.6c-1.2,0-2.2,0-3.1,0c-5.9-0.1-11.8,0-17.7-0.2c-4.8-0.2-7.1-4.5-4.9-8.5c0.9-1.7,2.4-2.3,4.1-2.5
		c1.1-0.2,2.2-0.2,3.3-0.2c5.2,0,10.4-0.1,15.6-0.1c0.9,0,1.7-0.1,2.8-0.1c0.6-11.1,2.2-21.9,5-32.5s6.8-20.7,11.7-30.6
		c-1.5-0.4-2.6-0.7-3.8-1c-3.4-1.1-5-3.7-4.2-7c0.7-3,3.5-4.7,6.8-4.2c1.4,0.2,2.8,0.5,4.2,0.9c1.9,0.5,3.3-0.1,4.5-1.5
		c0.5-0.6,0.9-1.3,1.4-1.9c3.3-4.3,6.5-8.7,9.8-13c0.6-0.8,1.3-1.5,2-2c1.9-1.3,4.1-1.4,6.1-0.3c2.1,1.2,2.7,3.2,2.2,5.4
		c-0.4,1.6-1,3.2-1.9,4.6c-2.1,3-4.4,5.9-6.6,8.8C218.7,157.2,218.3,157.9,217.7,158.7z M193.8,242.9c0,1-0.1,1.9,0,2.8
		c0.3,3.1,0.5,6.2,0.9,9.3c2.1,16.3,7.1,31.6,14.6,46.1c1.1,2.1,2.4,2.9,4.7,2.7c3.7-0.4,7.5-0.7,11.2-1c6.7-0.5,13.4-1.1,20.1-1.6
		c1.9-0.2,3.8-0.4,5.8-0.5c0-19.3,0-38.4,0-57.7C232,242.9,213.1,242.9,193.8,242.9z M321,243c-19.4,0-38.5,0-57.5,0
		c-0.6,2.9-0.4,55.7,0.2,57.7c1.9,0.2,3.9,0.4,5.8,0.6c7.4,0.6,14.8,1.2,22.2,1.8c3,0.2,6.1,0.4,9.1,0.7c1.9,0.2,3.3-0.4,4.1-2.2
		c0.2-0.5,0.5-1,0.8-1.5c7.3-14.1,12-29,14.1-44.8C320.3,251.3,320.6,247.3,321,243z M193.6,230.6c19.2,0,38.3,0,57.6,0
		c0-19.2,0-38.2,0-57.4c-0.8-0.1-1.5-0.2-2.2-0.3c-3.5-0.2-7-0.4-10.5-0.6c-4.9-0.4-9.9-0.8-14.8-1.3c-3-0.3-6-0.6-9-1
		c-2.5-0.3-4.4,0.6-5.5,2.9c-0.2,0.5-0.5,1-0.8,1.5c-4.1,8.4-7.5,17.1-10,26.1C195.6,210.3,194.3,220.3,193.6,230.6z M320.7,230.7
		c0-1.3,0.1-2.3,0-3.3c-0.2-2.4-0.5-4.8-0.7-7.2c-1.9-16.4-6.8-32-14.3-46.7c-2-4-2.1-4-6.5-3.6c-11.4,1-22.8,1.9-34.1,2.9
		c-0.5,0-1,0.2-1.6,0.3c0,19.2,0,38.3,0,57.5C282.5,230.7,301.4,230.7,320.7,230.7z M371.1,230.6c0-1.1,0.1-2,0-3
		c-0.4-3.4-0.7-6.8-1.3-10.2c-3.5-20.2-11.9-38.1-25-53.9c-1.4-1.6-2.8-2.1-4.8-1.6c-5.4,1.4-10.9,2.6-16.3,4
		c-2.3,0.6-4.6,1.1-7.2,1.8c0.3,1,0.6,1.8,0.9,2.6c1.8,4.8,3.6,9.6,5.4,14.3c4.8,12.4,7.2,25.5,9.2,38.6c0.4,2.5,0.9,5,1.3,7.4
		C346.1,230.6,358.5,230.6,371.1,230.6z M315.7,305.7c0.7,0.2,1.1,0.3,1.4,0.4c7.4,1.8,14.8,3.4,22.1,5.4c2.8,0.7,4.6,0.1,6.2-2.1
		c0.1-0.2,0.3-0.4,0.5-0.6c15-18.5,23.4-39.6,25.3-63.3c0.1-0.8,0-1.7,0-2.5c-4.7-0.5-36.8-0.3-38.6,0.2
		C331.3,265.1,325.8,285.9,315.7,305.7z M251.1,349.1c0.5-9.2,0.3-35.3-0.3-37.2c-10.9,0.8-21.9,1.7-33.3,2.5
		C226.9,328,237.7,339.5,251.1,349.1z M263.4,348.9c10.1-6.1,31.3-28.4,33-34.5c-11-0.8-21.9-1.7-33-2.5
		C263.4,324.3,263.4,336.5,263.4,348.9z M263.6,124.9c-0.6,3.1-0.4,35,0.2,36.8c10.8-0.8,21.6-1.6,32.4-2.5
		C293.6,151.7,273.4,130.5,263.6,124.9z M333.6,321.6c-7.1-1.4-13.7-2.7-20.2-4.2c-2.5-0.6-4.3,0.1-5.9,2
		c-7.4,8.9-14.9,17.8-22.3,26.7c-0.4,0.4-0.6,0.9-1,1.7C302.8,343.1,319,334.5,333.6,321.6z M284.8,126c-0.1,0.2-0.2,0.3-0.3,0.5
		c0.5,0.6,1,1.2,1.6,1.7c8,8.1,15.5,16.6,21.6,26.2c1.3,2,2.7,2.4,4.8,2c6.2-1.3,12.5-2.5,18.7-3.8c0.6-0.1,1.1-0.5,2-0.9
		C318.9,139,302.9,130.4,284.8,126z M229.8,347.4c0.1-0.1,0.1-0.3,0.2-0.4c-0.6-0.6-1.1-1.3-1.7-1.8c-8-7.8-15.1-16.3-21.3-25.5
		c-1.8-2.6-2.3-2.8-5.4-2.2c-6,1.2-12,2.5-18,3.7c-0.6,0.1-1.1,0.4-2.1,0.7c2.3,2,4.2,3.9,6.2,5.5c6.8,5.3,14.2,9.5,21.9,13.2
		c5,2.4,10.2,4.7,15.6,6C226.7,346.9,228.2,347.1,229.8,347.4z"/>
	<path d="M147.8,581.7c-6.3,0-12.2,0-18.5,0c0-3.2,0-6.3-0.1-9.4c0-3,0-6.1,0-9.1c0-3.1,0-6.2,0-9.4c0-3,0-6.1,0-9.1
		c0-3.1,0-6.2,0-9.5c-17,0-33.8,0-50.5,0c-0.6-1.9-0.7-55.5-0.2-58.8c118.5,0,237,0,355.7,0c0,19.3,0,38.5,0,58.1
		c-2.7,0.2-5.5,0-8.3,0.1c-2.8,0-5.6,0-8.4,0s-5.6,0-8.4,0s-5.6,0-8.4,0s-5.6,0-8.4,0s-5.6,0-8.6,0c0,15.6,0,31,0,46.7
		c-3.2,0-6.2,0.1-9.2,0.1s-6.1,0-9.3,0c0,12.4,0,24.6,0,36.9c-4.4,0-8.6,0-13.1,0c0-12.1,0-24.2,0-36.4c-63.9,0-127.6,0-191.6,0
		c0,12.3,0,24.3,0,36.4c-4.3,0-8.4,0-12.8,0C147.8,606.2,147.9,594.1,147.8,581.7z M421.8,489.1c-3-0.5-329.3-0.4-331,0.1
		c-0.4,3.8-0.3,31,0.2,32.7c110.2,0,220.4,0,330.8,0C421.8,510.9,421.8,500,421.8,489.1z M142,568.4c76.3,0,152.4,0,228.6,0
		c0-11,0-21.9,0-32.8c-2.8-0.5-226.8-0.4-228.6,0.1C142,546.5,142,557.4,142,568.4z"/>
	<path d="M155.4,360.3c1.1,1,2.3,2,3.4,2.9c19.7,15.3,41.7,25.6,66.2,30.5c14.6,2.9,29.3,3.8,44.1,2.7c31.8-2.4,60.5-13.1,85.7-32.5
		c30.4-23.4,49.7-54.1,58.6-91.4c3.2-13.6,4.7-27.4,4.3-41.4c-0.6-22.3-6.2-43.4-16-63.4c-4-8.1-8.5-15.9-13.7-23.3
		c-0.5-0.7-0.9-1.5-1.2-2.3c-1-2.8-0.2-5.2,2.2-6.7c2.4-1.5,4.8-1.2,7,0.8c0.5,0.5,1,1.1,1.4,1.7c13.5,19.3,23.1,40.3,27.9,63.4
		c3.4,15.9,4.4,32,3.1,48.2c-3.3,42.8-20.5,79.3-50.9,109.5c-24.9,24.7-54.7,40.1-89.2,46.3c-15.5,2.8-31.1,3.8-46.8,2.4
		c-27.2-2.3-52.3-11-75.2-25.7c-6.1-3.9-11.9-8.4-17.8-12.6c-0.8-0.6-1.6-1.2-2.9-2.1c0,2.1,0,3.8,0,5.4c0,2.8,0,5.6,0,8.4
		c0,0.8-0.1,1.6-0.3,2.4c-0.6,2.6-2.4,4.1-5.1,4.2c-2.9,0.1-4.8-1.2-5.5-3.9c-0.2-0.9-0.3-1.9-0.3-2.8c0-8.6,0-17.3,0-25.9
		c0-0.7,0-1.4,0.2-2.1c0.4-2.4,1.8-3.9,4.2-4.3c0.9-0.2,1.7-0.2,2.6-0.2c8.2,0,16.3,0,24.5,0c1.3,0,2.7,0.1,4,0.5
		c2.6,0.7,3.9,2.6,3.8,5.4c-0.1,2.6-1.4,4.5-3.9,5.1c-1.3,0.3-2.7,0.4-4,0.4c-3.3,0.1-6.7,0-10,0C155.6,360,155.5,360.1,155.4,360.3
		z"/>
	<path d="M368.8,106c0-4.1,0-7.9,0-11.8c0-1.4,0-2.7,0.3-4c0.7-3,2.6-4.4,5.7-4.3c2.8,0.1,4.6,1.8,5.1,4.8c0.1,0.9,0.2,1.9,0.2,2.9
		c0,8.2,0,16.3,0,24.5c0,5.6-1.7,7.2-7.4,7.2c-8.2,0-16.5,0-24.7,0c-0.8,0-1.6,0-2.4-0.1c-3.2-0.5-4.8-2.5-4.8-5.6
		c0-3,1.6-4.9,4.7-5.4c1.7-0.3,3.5-0.2,5.3-0.2c2.7,0,5.4,0,8.3-0.5c-0.9-0.8-1.7-1.6-2.6-2.3c-21-16.3-44.4-27.4-70.7-32
		c-15-2.6-30-3-45.1-1.5c-52.9,5.4-100.3,36.9-125.4,84.2c-8.5,16-14,32.9-16.7,50.7c-1.8,11.6-2.4,23.2-1.7,34.9
		c1.2,20.1,6.3,39.2,15.1,57.3c3.8,7.9,8.2,15.4,13,22.6c1,1.5,1.9,3.1,2.6,4.8c1,2.5,0.2,4.5-1.8,5.9s-4.2,1.5-6.2-0.1
		c-1.2-0.9-2.3-2-3.1-3.3C102.8,315,93.3,293.6,88.7,270c-3.1-15.5-4-31.2-2.8-47c2.4-30.7,12.5-58.8,30.2-84
		c22.1-31.4,51.3-53.4,87.8-65.5c12.5-4.1,25.4-6.4,38.5-7.6c11.3-1,22.7-1,34,0.2c21.5,2.3,41.7,8.6,60.7,18.8
		c10,5.3,19.3,11.6,28.2,18.6c0.8,0.6,1.6,1.3,2.5,1.9C368,105.7,368.3,105.8,368.8,106z"/>
	<path class="st0" d="M193.8,242.9c19.3,0,38.2,0,57.3,0c0,19.3,0,38.4,0,57.7c-2,0.2-3.9,0.4-5.8,0.5c-6.7,0.5-13.4,1.1-20.1,1.6
		c-3.7,0.3-7.5,0.6-11.2,1c-2.3,0.3-3.7-0.6-4.7-2.7c-7.5-14.6-12.5-29.9-14.6-46.1c-0.4-3.1-0.6-6.2-0.9-9.3
		C193.7,244.8,193.8,243.9,193.8,242.9z"/>
	<path class="st0" d="M321,243c-0.4,4.3-0.7,8.3-1.3,12.4c-2.1,15.7-6.8,30.6-14.1,44.8c-0.3,0.5-0.5,1-0.8,1.5
		c-0.8,1.8-2.2,2.4-4.1,2.2c-3-0.3-6-0.5-9.1-0.7c-7.4-0.6-14.8-1.2-22.2-1.8c-2-0.2-3.9-0.4-5.8-0.6c-0.6-1.9-0.8-54.8-0.2-57.7
		C282.5,243,301.5,243,321,243z"/>
	<path class="st1" d="M193.6,230.6c0.7-10.3,2-20.3,4.8-30.1c2.5-9,5.9-17.7,10-26.1c0.2-0.5,0.5-1,0.8-1.5c1.1-2.3,2.9-3.2,5.5-2.9
		c3,0.4,6,0.7,9,1c4.9,0.5,9.9,0.9,14.8,1.3c3.5,0.3,7,0.4,10.5,0.6c0.7,0,1.4,0.2,2.2,0.3c0,19.2,0,38.2,0,57.4
		C231.9,230.6,212.8,230.6,193.6,230.6z"/>
	<path class="st0" d="M320.7,230.7c-19.3,0-38.2,0-57.3,0c0-19.2,0-38.3,0-57.5c0.5-0.1,1-0.3,1.6-0.3c11.4-1,22.8-1.9,34.1-2.9
		c4.3-0.4,4.4-0.4,6.5,3.6c7.5,14.7,12.4,30.3,14.3,46.7c0.3,2.4,0.5,4.8,0.7,7.2C320.8,228.5,320.7,229.5,320.7,230.7z"/>
	<path class="st0" d="M371.1,230.6c-12.6,0-25,0-37.8,0c-0.4-2.4-0.9-4.9-1.3-7.4c-2-13.1-4.4-26.1-9.2-38.6
		c-1.8-4.8-3.6-9.6-5.4-14.3c-0.3-0.8-0.6-1.6-0.9-2.6c2.5-0.6,4.8-1.2,7.2-1.8c5.4-1.3,10.9-2.6,16.3-4c2-0.5,3.5,0,4.8,1.6
		c13.1,15.8,21.5,33.7,25,53.9c0.6,3.4,0.9,6.8,1.3,10.2C371.2,228.6,371.1,229.5,371.1,230.6z"/>
	<path class="st0" d="M315.7,305.7c10.1-19.8,15.7-40.6,16.8-62.4c1.8-0.5,33.9-0.7,38.6-0.2c0,0.8,0.1,1.6,0,2.5
		c-1.9,23.7-10.3,44.8-25.3,63.3c-0.2,0.2-0.3,0.4-0.5,0.6c-1.5,2.2-3.4,2.9-6.2,2.1c-7.3-2-14.7-3.6-22.1-5.4
		C316.7,306,316.4,305.9,315.7,305.7z"/>
	<path class="st0" d="M251.1,349.1c-13.4-9.6-24.2-21.1-33.6-34.7c11.4-0.9,22.3-1.7,33.3-2.5C251.4,313.9,251.6,339.9,251.1,349.1z
		"/>
	<path class="st0" d="M263.4,348.9c0-12.4,0-24.6,0-37c11.1,0.8,22.1,1.7,33,2.5C294.7,320.6,273.5,342.9,263.4,348.9z"/>
	<path class="st0" d="M263.6,124.9c9.8,5.6,30,26.8,32.6,34.3c-10.9,0.8-21.7,1.6-32.4,2.5C263.1,159.9,263,128,263.6,124.9z"/>
	<path class="st0" d="M333.6,321.6c-14.6,12.9-30.8,21.5-49.4,26.2c0.4-0.7,0.7-1.3,1-1.7c7.4-8.9,14.9-17.8,22.3-26.7
		c1.6-1.9,3.3-2.6,5.9-2C319.9,318.9,326.5,320.2,333.6,321.6z"/>
	<path class="st0" d="M284.8,126c18.1,4.4,34.1,13,48.4,25.6c-0.9,0.4-1.4,0.7-2,0.9c-6.2,1.3-12.5,2.5-18.7,3.8
		c-2.1,0.4-3.6,0-4.8-2c-6.2-9.6-13.7-18-21.6-26.2c-0.5-0.6-1-1.1-1.6-1.7C284.6,126.3,284.7,126.2,284.8,126z"/>
	<path class="st0" d="M229.8,347.4c-1.5-0.3-3.1-0.5-4.6-0.9c-5.5-1.3-10.6-3.6-15.6-6c-7.7-3.7-15.1-7.9-21.9-13.2
		c-2.1-1.6-3.9-3.5-6.2-5.5c1-0.4,1.5-0.6,2.1-0.7c6-1.2,12-2.5,18-3.7c3.1-0.6,3.6-0.4,5.4,2.2c6.2,9.3,13.3,17.7,21.3,25.5
		c0.6,0.6,1.2,1.2,1.7,1.8C229.9,347.1,229.8,347.2,229.8,347.4z"/>
</g>
<g>
	<path class="st1" d="M250.8,122.7c-0.5,0-1.1,0-1.6,0c-7.1,0.5-14,1.6-20.8,3.4c-50.2,13.3-85.1,58.1-85.3,110.6
		c3.3,0,7.6,0,12.4,0c0-1,0.3-2,0.8-3c0.9-1.6,2.4-2.2,4.1-2.5c1-0.2,2.2-0.2,3.3-0.2c5.2,0,10.4-0.1,15.6-0.1c0.8,0,1.7,0,2.8-0.1
		c0.6-11.1,2.2-21.9,5-32.5c2.8-10.6,6.8-20.7,11.7-30.6c-1.5-0.4-2.7-0.6-3.8-1c-3.4-1.1-5-3.7-4.2-7c0.7-3,3.5-4.7,6.8-4.2
		c1.4,0.3,2.8,0.5,4.2,0.9c1.9,0.5,3.3-0.1,4.5-1.5c0.5-0.6,0.9-1.3,1.4-1.9c3.2-4.3,6.5-8.7,9.8-13c0.5-0.7,1.2-1.5,2-2
		c1.9-1.3,4.1-1.5,6.1-0.3c2.1,1.2,2.7,3.2,2.2,5.4c-0.3,1.6-1,3.3-1.9,4.6c-2,3-4.4,5.9-6.6,8.8c-0.5,0.7-1,1.4-1.6,2.2
		c0.5,0.3,0.7,0.5,1,0.3c10.8,0.9,21.5,1.7,32.2,2.5C251.4,158.7,251.3,124.5,250.8,122.7z"/>
	<path class="st0" d="M143.6,248.4c1.4,15.3,6.1,29.7,13.6,43.1c3.5,6.2,7.5,12.1,11.9,17.7c1.6,2,3.5,2.9,6.1,2.1
		c2.8-0.9,5.7-1.4,8.6-2.1c5-1.2,9.9-2.3,15.2-3.5c-5.1-10-9.1-20.1-11.9-30.7c-2.9-10.6-4.4-21.5-5.1-32.6c-1.2,0-2.2,0-3.1,0
		c-5.9,0-11.8,0.1-17.7-0.2c-3.6-0.1-5.8-2.6-5.7-5.5c-4.8,0-9.1,0-12.4,0C143.1,240.6,143.2,244.5,143.6,248.4z"/>
</g>
</svg>
